<svg width="25" height="29" viewBox="0 0 25 29" fill="none" xmlns="http://www.w3.org/2000/svg">
<path d="M12.5 29C14.2188 29 15.625 27.6615 15.625 26.0256H9.375C9.375 26.8145 9.70424 27.571 10.2903 28.1288C10.8763 28.6866 11.6712 29 12.5 29ZM21.875 20.0769V12.641C21.875 8.07539 19.3125 4.25333 14.8438 3.24205V2.23077C14.8438 0.99641 13.7969 0 12.5 0C11.2031 0 10.1562 0.99641 10.1562 2.23077V3.24205C5.67188 4.25333 3.125 8.06051 3.125 12.641V20.0769L0 23.0513V24.5385H25V23.0513L21.875 20.0769Z" fill="#5F615B" fill-opacity="0.53"/>
</svg>
