<svg width="18" height="18" viewBox="0 0 18 18" fill="none" xmlns="http://www.w3.org/2000/svg">
<path d="M14.6498 12.3004C14.2132 12.3005 13.7825 12.4009 13.391 12.5941C12.9995 12.7872 12.6576 13.0678 12.3919 13.4142L6.24446 9.92518C6.45102 9.32585 6.45102 8.67462 6.24446 8.07528L12.3919 4.58626C12.821 5.14299 13.4408 5.52135 14.1321 5.64854C14.8234 5.77574 15.5373 5.64277 16.1365 5.27524C16.7356 4.90771 17.1777 4.33157 17.3776 3.6577C17.5775 2.98383 17.5211 2.25983 17.2193 1.62502C16.9175 0.990213 16.3916 0.489448 15.7428 0.219087C15.094 -0.0512752 14.3681 -0.072131 13.7048 0.160532C13.0415 0.393196 12.4877 0.862939 12.15 1.47937C11.8122 2.0958 11.7144 2.81537 11.8752 3.49961L5.62309 7.04811C5.23186 6.63192 4.7246 6.34288 4.1671 6.21849C3.6096 6.0941 3.02758 6.14009 2.49654 6.35051C1.9655 6.56092 1.50993 6.92604 1.18893 7.39852C0.867922 7.87099 0.696289 8.42902 0.696289 9.00023C0.696289 9.57144 0.867922 10.1295 1.18893 10.6019C1.50993 11.0744 1.9655 11.4395 2.49654 11.65C3.02758 11.8604 3.6096 11.9064 4.1671 11.782C4.7246 11.6576 5.23186 11.3685 5.62309 10.9524L11.8753 14.5009C11.7405 15.0769 11.7883 15.6806 12.0121 16.2282C12.2359 16.7758 12.6245 17.2402 13.1241 17.557C13.6238 17.8738 14.2096 18.0272 14.8003 17.996C15.3911 17.9649 15.9575 17.7506 16.421 17.383C16.8845 17.0154 17.2221 16.5127 17.387 15.9445C17.5519 15.3764 17.5359 14.771 17.3412 14.2124C17.1465 13.6538 16.7828 13.1696 16.3006 12.827C15.8183 12.4844 15.2414 12.3003 14.6498 12.3004ZM14.6498 1.19985C14.9761 1.19985 15.2952 1.29662 15.5665 1.47794C15.8379 1.65925 16.0494 1.91696 16.1743 2.21847C16.2992 2.51998 16.3318 2.85176 16.2682 3.17184C16.2045 3.49193 16.0473 3.78594 15.8166 4.01671C15.5858 4.24748 15.2918 4.40464 14.9717 4.4683C14.6516 4.53197 14.3198 4.4993 14.0183 4.3744C13.7168 4.24951 13.4591 4.03802 13.2778 3.76666C13.0965 3.49531 12.9997 3.17628 12.9997 2.84993C13.0002 2.41245 13.1742 1.99303 13.4835 1.68368C13.7929 1.37434 14.2123 1.20033 14.6498 1.19985ZM3.54924 10.6503C3.22288 10.6503 2.90386 10.5535 2.6325 10.3722C2.36115 10.1909 2.14965 9.9332 2.02476 9.63169C1.89987 9.33018 1.86719 8.9984 1.93086 8.67832C1.99453 8.35823 2.15169 8.06422 2.38245 7.83345C2.61322 7.60268 2.90724 7.44552 3.22732 7.38186C3.54741 7.31819 3.87918 7.35086 4.1807 7.47575C4.48221 7.60065 4.73992 7.81214 4.92123 8.0835C5.10254 8.35485 5.19932 8.67388 5.19932 9.00023C5.19883 9.43771 5.02483 9.85713 4.71549 10.1665C4.40614 10.4758 3.98672 10.6498 3.54924 10.6503ZM14.6498 16.8006C14.3234 16.8006 14.0044 16.7038 13.733 16.5225C13.4617 16.3412 13.2502 16.0835 13.1253 15.782C13.0004 15.4805 12.9677 15.1487 13.0314 14.8286C13.0951 14.5085 13.2522 14.2145 13.483 13.9838C13.7138 13.753 14.0078 13.5958 14.3279 13.5322C14.648 13.4685 14.9797 13.5012 15.2812 13.6261C15.5828 13.7509 15.8405 13.9624 16.0218 14.2338C16.2031 14.5052 16.2999 14.8242 16.2999 15.1505C16.2994 15.588 16.1254 16.0074 15.816 16.3168C15.5067 16.6261 15.0873 16.8001 14.6498 16.8006Z" fill="#2176AE"/>
</svg>
